<svg xmlns="http://www.w3.org/2000/svg" width="32.424" height="20.269" viewBox="0 0 32.424 20.269">
  <g id="behance-network" transform="translate(0 -4.5)">
    <path id="Tracé_10" data-name="Tracé 10" d="M16.705,18.616a4.8,4.8,0,0,0-3.642-5.035,4.258,4.258,0,0,0,2.724-4.154c0-3.962-2.962-4.928-6.379-4.928H0V24.392H9.672C13.3,24.392,16.705,22.658,16.705,18.616ZM4.386,7.9H8.5c1.582,0,3.007.443,3.007,2.273,0,1.689-1.108,2.369-2.675,2.369H4.386Zm0,13.118V15.536H9.165c1.931,0,3.152.8,3.152,2.84,0,2.009-1.458,2.638-3.243,2.638Z" transform="translate(0 0)" fill="#0a0138"/>
    <path id="Tracé_11" data-name="Tracé 11" d="M20.718,23.447c3.451,0,5.686-1.55,6.762-4.844h-3.5c-.377,1.23-1.931,1.88-3.136,1.88-2.325,0-3.547-1.358-3.547-3.666H27.716c.33-4.619-2.243-8.555-7-8.555a7.248,7.248,0,0,0-7.393,7.622C13.324,20.371,16.156,23.447,20.718,23.447Zm-.124-12.2c1.993,0,3,1.167,3.163,3.077H17.3a3.1,3.1,0,0,1,3.294-3.077Z" transform="translate(4.68 1.321)" fill="#0a0138"/>
    <path id="Tracé_12" data-name="Tracé 12" d="M15.667,5.273h8.091V7.232H15.667Z" transform="translate(5.503 0.272)" fill="#0a0138"/>
  </g>
</svg>
