<svg xmlns="http://www.w3.org/2000/svg" width="32.424" height="32.219" viewBox="0 0 32.424 32.219">
  <g id="linkedin" transform="translate(0 -0.253)">
    <g id="Groupe_11" data-name="Groupe 11" transform="translate(0 10.181)">
      <g id="Groupe_10" data-name="Groupe 10">
        <rect id="Rectangle_23" data-name="Rectangle 23" width="7.251" height="22.292" fill="#0a0138"/>
      </g>
    </g>
    <g id="Groupe_13" data-name="Groupe 13" transform="translate(10.133 10.181)">
      <g id="Groupe_12" data-name="Groupe 12">
        <path id="Tracé_9" data-name="Tracé 9" d="M176.869,160.261c-.077-.024-.15-.051-.231-.073-.1-.022-.195-.041-.294-.057a6.5,6.5,0,0,0-1.3-.132c-4.227,0-6.908,3.074-7.792,4.262V160H160v22.292h7.251V170.133s5.48-7.632,7.792-2.027v14.186h7.249V167.249A7.23,7.23,0,0,0,176.869,160.261Z" transform="translate(-160 -160)" fill="#0a0138"/>
      </g>
    </g>
    <g id="Groupe_15" data-name="Groupe 15" transform="translate(0 0)">
      <g id="Groupe_14" data-name="Groupe 14">
        <circle id="Ellipse_5" data-name="Ellipse 5" cx="3.5" cy="3.5" r="3.5" transform="translate(0 0.253)" fill="#0a0138"/>
      </g>
    </g>
  </g>
</svg>
