<svg id="mail" xmlns="http://www.w3.org/2000/svg" width="32.424" height="22.292" viewBox="0 0 32.424 22.292">
  <g id="Groupe_3" data-name="Groupe 3" transform="translate(21.493 4.11)">
    <g id="Groupe_2" data-name="Groupe 2">
      <path id="Tracé_2" data-name="Tracé 2" d="M339.392,152.1l10.931,6.91V144.9Z" transform="translate(-339.392 -144.896)" fill="#0a0138"/>
    </g>
  </g>
  <g id="Groupe_5" data-name="Groupe 5" transform="translate(0 4.11)">
    <g id="Groupe_4" data-name="Groupe 4">
      <path id="Tracé_3" data-name="Tracé 3" d="M0,144.9v14.113l10.931-6.91Z" transform="translate(0 -144.896)" fill="#0a0138"/>
    </g>
  </g>
  <g id="Groupe_7" data-name="Groupe 7" transform="translate(0.061)">
    <g id="Groupe_6" data-name="Groupe 6">
      <path id="Tracé_4" data-name="Tracé 4" d="M31.3,80H2.926A2,2,0,0,0,.96,81.725L17.111,92.366,33.263,81.725A2,2,0,0,0,31.3,80Z" transform="translate(-0.96 -80)" fill="#0a0138"/>
    </g>
  </g>
  <g id="Groupe_9" data-name="Groupe 9" transform="translate(0.065 12.534)">
    <g id="Groupe_8" data-name="Groupe 8">
      <path id="Tracé_5" data-name="Tracé 5" d="M20.6,277.922l-2.868,1.889a1.018,1.018,0,0,1-1.115,0l-2.868-1.891L1.024,285.967a2,2,0,0,0,1.962,1.71H31.357a2,2,0,0,0,1.962-1.71Z" transform="translate(-1.024 -277.92)" fill="#0a0138"/>
    </g>
  </g>
</svg>
